<svg xmlns="http://www.w3.org/2000/svg" xmlns:xlink="http://www.w3.org/1999/xlink" version="1.1" x="0px" y="0px" viewBox="0 0 24 30" enable-background="new 0 0 24 24" xml:space="preserve"><g><g><path d="M5.797,3h-3.92v2h2.08l1,12H7.39c-0.317,0.419-0.513,0.935-0.513,1.5c0,1.379,1.121,2.5,2.5,2.5    c1.378,0,2.5-1.121,2.5-2.5c0-0.565-0.195-1.081-0.513-1.5h2.025c-0.317,0.419-0.513,0.935-0.513,1.5c0,1.379,1.121,2.5,2.5,2.5    c1.378,0,2.5-1.121,2.5-2.5c0-0.565-0.195-1.081-0.513-1.5h1.513v-2H6.797L5.797,3z M9.377,19c-0.276,0-0.5-0.225-0.5-0.5    s0.224-0.5,0.5-0.5c0.275,0,0.5,0.225,0.5,0.5S9.652,19,9.377,19z M15.377,19c-0.276,0-0.5-0.225-0.5-0.5s0.224-0.5,0.5-0.5    c0.275,0,0.5,0.225,0.5,0.5S15.652,19,15.377,19z"/><path d="M7.706,14h11.973l2.444-11H6.79L7.706,14z M19.63,5l-1.556,7H9.547L8.964,5H19.63z"/></g></g></svg>